<?xml version="1.0" encoding="UTF-8"?>
<svg xmlns="http://www.w3.org/2000/svg" xmlns:xlink="http://www.w3.org/1999/xlink" width="75pt" height="149.999998pt" viewBox="0 0 75 149.999998" version="1.2">
<g id="surface1">
<path style=" stroke:none;fill-rule:nonzero;fill:rgb(6.669617%,66.268921%,63.919067%);fill-opacity:1;" d="M 35.367188 26.863281 L 39.644531 26.863281 L 39.644531 126.835938 L 35.367188 126.835938 Z M 35.367188 26.863281 "/>
<path style=" stroke:none;fill-rule:nonzero;fill:rgb(6.669617%,66.268921%,63.919067%);fill-opacity:1;" d="M 35.367188 26.859375 L 37.5 23.164062 L 39.632812 26.859375 Z M 35.367188 26.859375 "/>
<path style=" stroke:none;fill-rule:nonzero;fill:rgb(100%,100%,100%);fill-opacity:1;" d="M 35.367188 126.835938 L 37.5 123.140625 L 39.632812 126.835938 Z M 35.367188 126.835938 "/>
<path style=" stroke:none;fill-rule:nonzero;fill:rgb(100%,100%,100%);fill-opacity:1;" d="M 37.5 74.046875 C 37.238281 74.046875 37.011719 74.136719 36.824219 74.324219 C 36.636719 74.511719 36.546875 74.738281 36.546875 75 C 36.546875 75.261719 36.636719 75.488281 36.824219 75.675781 C 37.011719 75.863281 37.238281 75.953125 37.5 75.953125 C 37.761719 75.953125 37.988281 75.863281 38.175781 75.675781 C 38.363281 75.488281 38.453125 75.261719 38.453125 75 C 38.453125 74.738281 38.363281 74.511719 38.175781 74.324219 C 37.988281 74.136719 37.761719 74.046875 37.5 74.046875 Z M 37.5 74.046875 "/>
</g>
</svg>
