<?xml version="1.0" encoding="UTF-8"?>
<svg xmlns="http://www.w3.org/2000/svg" xmlns:xlink="http://www.w3.org/1999/xlink" width="75pt" height="74.999997pt" viewBox="0 0 75 74.999997" version="1.2">
<g id="surface1">
<path style=" stroke:none;fill-rule:nonzero;fill:rgb(6.669617%,66.268921%,63.919067%);fill-opacity:1;" d="M 47.019531 64.324219 L 47.019531 16.171875 L 37.5 10.675781 L 27.976562 16.171875 L 27.976562 64.324219 L 37.5 58.824219 Z M 47.019531 64.324219 "/>
<path style=" stroke:none;fill-rule:nonzero;fill:rgb(100%,100%,100%);fill-opacity:1;" d="M 37.5 35.511719 C 37.238281 35.511719 36.984375 35.5625 36.738281 35.664062 C 36.496094 35.765625 36.28125 35.910156 36.09375 36.09375 C 35.910156 36.28125 35.765625 36.496094 35.664062 36.738281 C 35.5625 36.984375 35.511719 37.238281 35.511719 37.5 C 35.511719 37.761719 35.5625 38.015625 35.664062 38.261719 C 35.765625 38.503906 35.910156 38.71875 36.09375 38.90625 C 36.28125 39.089844 36.496094 39.234375 36.738281 39.335938 C 36.984375 39.4375 37.238281 39.488281 37.5 39.488281 C 37.761719 39.488281 38.015625 39.4375 38.261719 39.335938 C 38.503906 39.234375 38.71875 39.089844 38.90625 38.90625 C 39.089844 38.71875 39.234375 38.503906 39.335938 38.261719 C 39.4375 38.015625 39.488281 37.761719 39.488281 37.5 C 39.488281 37.238281 39.4375 36.984375 39.335938 36.738281 C 39.234375 36.496094 39.089844 36.28125 38.90625 36.09375 C 38.71875 35.910156 38.503906 35.765625 38.261719 35.664062 C 38.015625 35.5625 37.761719 35.511719 37.5 35.511719 Z M 37.5 35.511719 "/>
</g>
</svg>
