<?xml version="1.0" encoding="UTF-8"?>
<svg xmlns="http://www.w3.org/2000/svg" xmlns:xlink="http://www.w3.org/1999/xlink" width="75pt" height="149.999998pt" viewBox="0 0 75 149.999998" version="1.2">
<g id="surface1">
<path style=" stroke:none;fill-rule:nonzero;fill:rgb(91.758728%,91.758728%,91.758728%);fill-opacity:1;" d="M 32.441406 29.023438 L 42.578125 29.023438 L 42.578125 129 L 32.441406 129 Z M 32.441406 29.023438 "/>
<path style=" stroke:none;fill-rule:nonzero;fill:rgb(91.758728%,91.758728%,91.758728%);fill-opacity:1;" d="M 32.441406 29.019531 L 37.5 20.253906 L 42.558594 29.019531 Z M 32.441406 29.019531 "/>
<path style=" stroke:none;fill-rule:nonzero;fill:rgb(94.509888%,44.309998%,49.01886%);fill-opacity:1;" d="M 31.96875 129.746094 L 37.5 120.167969 L 43.03125 129.746094 Z M 31.96875 129.746094 "/>
<path style=" stroke:none;fill-rule:nonzero;fill:rgb(100%,100%,100%);fill-opacity:1;" d="M 37.5 72.300781 C 37.140625 72.300781 36.796875 72.367188 36.464844 72.503906 C 36.136719 72.640625 35.84375 72.835938 35.589844 73.089844 C 35.335938 73.34375 35.140625 73.636719 35.003906 73.964844 C 34.867188 74.296875 34.800781 74.640625 34.800781 75 C 34.800781 75.359375 34.867188 75.703125 35.003906 76.035156 C 35.140625 76.363281 35.335938 76.65625 35.589844 76.910156 C 35.84375 77.164062 36.136719 77.359375 36.464844 77.496094 C 36.796875 77.632812 37.140625 77.699219 37.5 77.699219 C 37.859375 77.699219 38.203125 77.632812 38.535156 77.496094 C 38.863281 77.359375 39.15625 77.164062 39.410156 76.910156 C 39.664062 76.65625 39.859375 76.363281 39.996094 76.035156 C 40.132812 75.703125 40.199219 75.359375 40.199219 75 C 40.199219 74.640625 40.132812 74.296875 39.996094 73.964844 C 39.859375 73.636719 39.664062 73.34375 39.410156 73.089844 C 39.15625 72.835938 38.863281 72.640625 38.535156 72.503906 C 38.203125 72.367188 37.859375 72.300781 37.5 72.300781 Z M 37.5 72.300781 "/>
</g>
</svg>
